REM DIRINDEX 1\5,1\2\6,1\2\7,1\3\8,1\3\9,1\4\10,1\4\11,1\4\12
REM DIRNAME cjc026,folder01,folder02,folder03,folder04,folder05,folder06,folder07,folder08,folder09,folder10,folder11
TITLE ""
FILE "EJE_DB3000_5th_1A_08.mp3" MP3
  TRACK 01 AUDIO
    TITLE "0:"
    INDEX 01 00:00:00
  TRACK 02 AUDIO
    TITLE "10:cjc026_07092"
    INDEX 01 00:00:08
  TRACK 03 AUDIO
    TITLE "0:"
    INDEX 01 00:01:16
  TRACK 04 AUDIO
    TITLE "11:cjc026_07093"
    INDEX 01 00:01:51
  TRACK 05 AUDIO
    TITLE "0:"
    INDEX 01 00:03:18
  TRACK 06 AUDIO
    TITLE "12:cjc026_07094"
    INDEX 01 00:03:50
  TRACK 07 AUDIO
    TITLE "0:"
    INDEX 01 00:04:59
  TRACK 08 AUDIO
    TITLE "10:cjc026_07095"
    INDEX 01 00:05:21
  TRACK 09 AUDIO
    TITLE "0:"
    INDEX 01 00:06:44
  TRACK 10 AUDIO
    TITLE "11:cjc026_07096"
    INDEX 01 00:07:04
  TRACK 11 AUDIO
    TITLE "0:"
    INDEX 01 00:08:39
  TRACK 12 AUDIO
    TITLE "12:cjc026_07097"
    INDEX 01 00:09:02
  TRACK 13 AUDIO
    TITLE "0:"
    INDEX 01 00:10:24
  TRACK 14 AUDIO
    TITLE "10:cjc026_07098"
    INDEX 01 00:10:60
  TRACK 15 AUDIO
    TITLE "0:"
    INDEX 01 00:12:04
  TRACK 16 AUDIO
    TITLE "11:cjc026_07099"
    INDEX 01 00:12:42
  TRACK 17 AUDIO
    TITLE "0:"
    INDEX 01 00:14:08
  TRACK 18 AUDIO
    TITLE "12:cjc026_07100"
    INDEX 01 00:14:43
  TRACK 19 AUDIO
    TITLE "0:"
    INDEX 01 00:15:65
  TRACK 20 AUDIO
    TITLE "10:cjc026_07101"
    INDEX 01 00:16:28
  TRACK 21 AUDIO
    TITLE "0:"
    INDEX 01 00:17:42
  TRACK 22 AUDIO
    TITLE "11:cjc026_07102"
    INDEX 01 00:18:05
  TRACK 23 AUDIO
    TITLE "0:"
    INDEX 01 00:19:43
  TRACK 24 AUDIO
    TITLE "12:cjc026_07103"
    INDEX 01 00:20:06
  TRACK 25 AUDIO
    TITLE "0:"
    INDEX 01 00:21:20
  TRACK 26 AUDIO
    TITLE "10:cjc026_07104"
    INDEX 01 00:21:55
  TRACK 27 AUDIO
    TITLE "0:"
    INDEX 01 00:23:11
  TRACK 28 AUDIO
    TITLE "11:cjc026_07105"
    INDEX 01 00:23:43
  TRACK 29 AUDIO
    TITLE "0:"
    INDEX 01 00:25:04
  TRACK 30 AUDIO
    TITLE "12:cjc026_07106"
    INDEX 01 00:25:39
  TRACK 31 AUDIO
    TITLE "0:"
    INDEX 01 00:26:66
  TRACK 32 AUDIO
    TITLE "10:cjc026_07107"
    INDEX 01 00:27:29
  TRACK 33 AUDIO
    TITLE "0:"
    INDEX 01 00:28:41
  TRACK 34 AUDIO
    TITLE "11:cjc026_07108"
    INDEX 01 00:29:01
  TRACK 35 AUDIO
    TITLE "0:"
    INDEX 01 00:30:39
  TRACK 36 AUDIO
    TITLE "12:cjc026_07109"
    INDEX 01 00:31:02
  TRACK 37 AUDIO
    TITLE "0:"
    INDEX 01 00:32:11
  TRACK 38 AUDIO
    TITLE "10:cjc026_07110"
    INDEX 01 00:32:46
  TRACK 39 AUDIO
    TITLE "0:"
    INDEX 01 00:33:73
  TRACK 40 AUDIO
    TITLE "11:cjc026_07111"
    INDEX 01 00:34:33
  TRACK 41 AUDIO
    TITLE "0:"
    INDEX 01 00:35:66
  TRACK 42 AUDIO
    TITLE "12:cjc026_07112"
    INDEX 01 00:36:27
  TRACK 43 AUDIO
    TITLE "0:"
    INDEX 01 00:37:54
  TRACK 44 AUDIO
    TITLE "10:cjc026_07113"
    INDEX 01 00:38:14
  TRACK 45 AUDIO
    TITLE "0:"
    INDEX 01 00:39:31
  TRACK 46 AUDIO
    TITLE "11:cjc026_07114"
    INDEX 01 00:39:66
  TRACK 47 AUDIO
    TITLE "0:"
    INDEX 01 00:41:35
  TRACK 48 AUDIO
    TITLE "12:cjc026_07115"
    INDEX 01 00:41:70
  TRACK 49 AUDIO
    TITLE "0:"
    INDEX 01 00:43:12
  TRACK 50 AUDIO
    TITLE "10:cjc026_07116"
    INDEX 01 00:43:47
  TRACK 51 AUDIO
    TITLE "0:"
    INDEX 01 00:44:53
  TRACK 52 AUDIO
    TITLE "11:cjc026_07117"
    INDEX 01 00:45:16
  TRACK 53 AUDIO
    TITLE "0:"
    INDEX 01 00:46:35
  TRACK 54 AUDIO
    TITLE "12:cjc026_07118"
    INDEX 01 00:46:70
  TRACK 55 AUDIO
    TITLE "0:"
    INDEX 01 00:48:01
  TRACK 56 AUDIO
    TITLE "10:cjc026_07119"
    INDEX 01 00:48:39
  TRACK 57 AUDIO
    TITLE "0:"
    INDEX 01 00:49:56
  TRACK 58 AUDIO
    TITLE "11:cjc026_07120"
    INDEX 01 00:50:16
  TRACK 59 AUDIO
    TITLE "0:"
    INDEX 01 00:51:38
  TRACK 60 AUDIO
    TITLE "12:cjc026_07121"
    INDEX 01 00:51:73
  TRACK 61 AUDIO
    TITLE "0:"
    INDEX 01 00:53:15
  TRACK 62 AUDIO
    TITLE "10:cjc026_07122"
    INDEX 01 00:53:50
  TRACK 63 AUDIO
    TITLE "0:"
    INDEX 01 00:54:72
  TRACK 64 AUDIO
    TITLE "11:cjc026_07123"
    INDEX 01 00:55:35
  TRACK 65 AUDIO
    TITLE "0:"
    INDEX 01 00:57:18
  TRACK 66 AUDIO
    TITLE "12:cjc026_07124"
    INDEX 01 00:57:55
  TRACK 67 AUDIO
    TITLE "0:"
    INDEX 01 00:59:03
  TRACK 68 AUDIO
    TITLE "10:cjc026_07125"
    INDEX 01 00:59:38
  TRACK 69 AUDIO
    TITLE "0:"
    INDEX 01 01:00:54
  TRACK 70 AUDIO
    TITLE "11:cjc026_07126"
    INDEX 01 01:01:20
  TRACK 71 AUDIO
    TITLE "0:"
    INDEX 01 01:03:00
  TRACK 72 AUDIO
    TITLE "12:cjc026_07127"
    INDEX 01 01:03:32
  TRACK 73 AUDIO
    TITLE "0:"
    INDEX 01 01:04:49
